<?xml version="1.0" encoding="utf-8"?>
<!-- Generator: Adobe Illustrator 19.0.0, SVG Export Plug-In . SVG Version: 6.00 Build 0)  -->
<svg version="1.1" id="Layer_1" xmlns="http://www.w3.org/2000/svg" xmlns:xlink="http://www.w3.org/1999/xlink" x="0px" y="0px"
	 viewBox="0 0 307 100" style="enable-background:new 0 0 307 100;" xml:space="preserve">
<style type="text/css">
	.st0{fill:#FFFFFF;}
	.st1{fill:none;stroke:#FFFFFF;}
	.st2{fill:#F6B918;}
	.st3{opacity:0.3;fill:#F6B918;}
	.st4{opacity:0.7;fill:#F6B918;}
	.st5{opacity:0.9;fill:#F6B918;}
	.st6{opacity:0.5;fill:#F6B918;}
	.st7{opacity:0.6;fill:#F6B918;}
</style>
<g id="XMLID_76_">
	<g id="XMLID_77_">
		<path id="XMLID_122_" class="st0" d="M121.4,60.9l-4.5,0l-12-15.2v15.2h-3.2V32.8h3.2v12.3L116,32.8l4.3,0l-11.8,12.5L121.4,60.9z
			"/>
		<path id="XMLID_119_" class="st0" d="M160.6,46.6c0,4.2-1.4,7.7-4.1,10.6c-2.8,2.9-6.1,4.4-10,4.4c-4,0-7.4-1.4-10.2-4.2
			c-2.9-2.8-4.3-6.3-4.3-10.4c0-4.2,1.4-7.7,4.1-10.6c2.8-2.9,6.1-4.4,10-4.4c4,0,7.4,1.4,10.2,4.2C159.2,39,160.6,42.5,160.6,46.6z
			 M157.3,46.5c0-3.2-1.1-5.9-3.3-8.2c-2.2-2.2-4.8-3.3-7.9-3.3c-3,0-5.6,1.2-7.7,3.5c-2.1,2.3-3.2,5.1-3.2,8.4
			c0,3.2,1.1,5.9,3.3,8.2c2.2,2.2,4.8,3.3,7.9,3.3c3,0,5.6-1.2,7.7-3.5C156.3,52.6,157.3,49.8,157.3,46.5z"/>
		<path id="XMLID_117_" class="st0" d="M193,32.8l-11,29h-1l-11-29h3.7l7.9,23l7.8-23H193z"/>
		<path id="XMLID_115_" class="st0" d="M224.6,60.9h-14.4V32.8h14.4v3h-11.2v8.3h11.2V47h-11.2v10.8h11.2V60.9z"/>
		<path id="XMLID_113_" class="st0" d="M259.5,60.9h-13.1V32.8h3.3v25.1h9.8V60.9z"/>
		<path id="XMLID_110_" class="st0" d="M304,46.6c0,4.2-1.4,7.7-4.1,10.6c-2.8,2.9-6.1,4.4-10,4.4c-4,0-7.4-1.4-10.2-4.2
			c-2.9-2.8-4.3-6.3-4.3-10.4c0-4.2,1.4-7.7,4.1-10.6c2.8-2.9,6.1-4.4,10-4.4c4,0,7.4,1.4,10.2,4.2C302.5,39,304,42.5,304,46.6z
			 M300.7,46.5c0-3.2-1.1-5.9-3.3-8.2c-2.2-2.2-4.8-3.3-7.9-3.3c-3,0-5.6,1.2-7.7,3.5c-2.1,2.3-3.2,5.1-3.2,8.4
			c0,3.2,1.1,5.9,3.3,8.2c2.2,2.2,4.8,3.3,7.9,3.3c3,0,5.6-1.2,7.7-3.5C299.6,52.6,300.7,49.8,300.7,46.5z"/>
		<path id="XMLID_108_" class="st0" d="M190.9,69.5c0,0.3-0.1,0.4-0.2,0.4h-3.8V80c0,0.3-0.1,0.4-0.4,0.4c-0.3,0-0.4-0.1-0.4-0.4
			V69.9h-3.9c-0.2,0-0.2-0.1-0.2-0.4c0-0.3,0.1-0.4,0.2-0.4h8.5C190.8,69.1,190.8,69.3,190.9,69.5z"/>
		<path id="XMLID_105_" class="st0" d="M200.9,78.6c0,0.3-0.3,0.6-0.9,1c-1,0.7-2,1.1-3.2,1.1c-1.2,0-2.3-0.5-3.1-1.4
			c-0.8-0.9-1.3-2-1.3-3.3c0-1.2,0.4-2.2,1.2-3c0.8-0.8,1.8-1.2,2.9-1.2c1.2,0,2.2,0.4,2.9,1.3c0.5,0.6,0.8,1.7,0.8,3.4h-7.1
			c0.1,1.1,0.5,1.9,1.2,2.5c0.6,0.6,1.5,0.9,2.5,0.9c0.9,0,1.8-0.2,2.5-0.6c0.1-0.1,0.3-0.3,0.6-0.6c0.3-0.3,0.5-0.5,0.6-0.5
			C200.8,78.2,200.9,78.3,200.9,78.6z M199.5,75.6c-0.1-0.6-0.1-1-0.2-1.2c-0.1-0.4-0.3-0.8-0.6-1c-0.6-0.6-1.4-0.9-2.2-0.9
			c-0.9,0-1.6,0.3-2.2,0.8c-0.6,0.6-1,1.3-1.1,2.2H199.5z"/>
		<path id="XMLID_103_" class="st0" d="M211.1,78.6c0,0.3-0.3,0.6-0.9,1c-0.9,0.7-2,1-3.2,1c-1.2,0-2.1-0.4-2.9-1.3
			c-0.8-0.8-1.1-1.9-1.1-3.1c0-1.3,0.4-2.4,1.1-3.2c0.8-0.9,1.7-1.3,2.9-1.3c0.9,0,1.7,0.2,2.3,0.6c0.8,0.5,1.2,1.2,1.2,2.1
			c0,0.2,0,0.3-0.1,0.4c-0.1,0.1-0.1,0.1-0.3,0.1c-0.2,0-0.3-0.1-0.3-0.2c0-0.2,0-0.3-0.1-0.5c0-0.4-0.4-0.8-1-1.2
			c-0.5-0.4-1.1-0.5-1.9-0.5c-1,0-1.7,0.4-2.4,1.1c-0.6,0.7-0.9,1.6-0.9,2.6c0,1.1,0.3,2,0.9,2.6c0.6,0.7,1.4,1,2.5,1
			c0.6,0,1.2-0.1,1.8-0.4c0.4-0.2,0.8-0.4,1.2-0.8c0.3-0.3,0.5-0.4,0.5-0.4C210.9,78.2,211.1,78.3,211.1,78.6z"/>
		<path id="XMLID_101_" class="st0" d="M220.5,80c0,0.3-0.1,0.4-0.4,0.4c-0.3,0-0.4-0.1-0.4-0.4v-5.5c0-1.4-0.9-2.1-2.6-2.1
			c-0.3,0-0.8,0.2-1.3,0.7c-0.1,0.1-0.5,0.5-1,1.2V80c0,0.3-0.1,0.4-0.4,0.4c-0.2,0-0.4-0.1-0.4-0.4V68.5c0-0.3,0.1-0.4,0.3-0.4
			c0.2,0,0.4,0.1,0.4,0.4v4.6c0.8-1,1.8-1.5,2.8-1.5c0.8,0,1.5,0.3,2,0.8c0.5,0.5,0.8,1.2,0.8,2.1V80z"/>
		<path id="XMLID_99_" class="st0" d="M230.9,80c0,0.3-0.1,0.4-0.4,0.4c-0.2,0-0.4-0.1-0.4-0.4v-5.4c0-0.6-0.2-1.1-0.7-1.5
			c-0.4-0.3-0.9-0.5-1.5-0.5c-0.6,0-1.2,0.2-1.7,0.6c-0.2,0.2-0.6,0.6-1.3,1.3V80c0,0.3-0.1,0.4-0.4,0.4c-0.3,0-0.4-0.1-0.4-0.4
			v-7.8c0-0.3,0.1-0.4,0.3-0.4c0.3,0,0.4,0.3,0.4,0.8c0,0.1,0,0.2,0,0.4c0,0.2,0,0.2,0,0.3c0.5-0.5,1-0.9,1.3-1.1
			c0.5-0.3,1-0.4,1.7-0.4c0.5,0,1,0.1,1.5,0.4c0.3,0.2,0.6,0.5,0.9,1c0.3,0.5,0.4,0.9,0.4,1.3V80z"/>
		<path id="XMLID_96_" class="st0" d="M242.2,76.2c0,1.3-0.4,2.3-1.2,3.2c-0.8,0.9-1.8,1.3-3,1.3c-1.2,0-2.2-0.4-3-1.3
			c-0.8-0.9-1.3-1.9-1.3-3.2c0-1.2,0.4-2.2,1.3-3.1c0.8-0.9,1.8-1.3,3-1.3c1.2,0,2.2,0.4,3,1.3C241.7,73.9,242.2,75,242.2,76.2z
			 M241.4,76.2c0-1-0.3-1.8-1-2.5c-0.7-0.7-1.5-1.1-2.4-1.1c-0.9,0-1.7,0.4-2.4,1.1c-0.7,0.7-1.1,1.6-1.1,2.5c0,1,0.3,1.9,1,2.6
			c0.7,0.7,1.5,1.1,2.5,1.1c1,0,1.8-0.3,2.5-1C241.1,78.1,241.4,77.3,241.4,76.2z"/>
		<path id="XMLID_94_" class="st0" d="M251.9,79.9c0,0.3-0.2,0.4-0.5,0.4H245c-0.3,0-0.5-0.2-0.5-0.5c0-0.2,0.2-0.3,0.5-0.3h2.9
			V69.2h-2.3c-0.3,0-0.5-0.1-0.5-0.4c0-0.3,0.2-0.4,0.5-0.4h3v11.2h2.8C251.8,79.6,251.9,79.7,251.9,79.9z"/>
		<path id="XMLID_91_" class="st0" d="M262.8,76.2c0,1.3-0.4,2.3-1.2,3.2c-0.8,0.9-1.8,1.3-3,1.3c-1.2,0-2.2-0.4-3-1.3
			c-0.8-0.9-1.3-1.9-1.3-3.2c0-1.2,0.4-2.2,1.3-3.1c0.8-0.9,1.8-1.3,3-1.3c1.2,0,2.2,0.4,3,1.3C262.3,73.9,262.8,75,262.8,76.2z
			 M262,76.2c0-1-0.3-1.8-1-2.5c-0.7-0.7-1.5-1.1-2.4-1.1c-0.9,0-1.7,0.4-2.4,1.1c-0.7,0.7-1,1.6-1,2.5c0,1,0.3,1.9,1,2.6
			c0.7,0.7,1.5,1.1,2.5,1.1c1,0,1.8-0.3,2.5-1C261.7,78.1,262,77.3,262,76.2z"/>
		<path id="XMLID_87_" class="st0" d="M273.1,80.6c0,0.9-0.5,1.6-1.6,2.1c-0.8,0.4-1.7,0.6-2.7,0.6c-0.9,0-1.8-0.2-2.7-0.6
			c-1.1-0.5-1.6-1.2-1.6-2.1c0-0.7,0.4-1.3,1.3-1.9l2.6-1.7c-0.6-0.1-1.1-0.4-1.5-0.9c-0.4-0.5-0.6-1.1-0.6-1.7
			c0-0.7,0.3-1.3,0.8-1.9c0.5-0.5,1.1-0.8,1.8-0.8c0.6,0,1.1,0.2,1.5,0.5c0.5-0.4,0.8-0.6,0.9-0.6c0.1,0,0.2,0.1,0.3,0.2
			c0.1,0.1,0.1,0.2,0.1,0.3c0,0.1-0.3,0.3-0.8,0.6c0.3,0.4,0.5,1,0.5,1.6c0,0.7-0.3,1.3-0.7,1.9c-0.2,0.2-1,0.7-2.4,1.6
			c0.3,0,0.5,0,0.6,0c0.9,0,1.8,0.2,2.7,0.6C272.5,79,273.1,79.7,273.1,80.6z M272.2,80.4c0-0.5-0.5-1-1.3-1.3
			c-0.7-0.3-1.4-0.4-2-0.4c-0.7,0-1.4,0.1-2.1,0.4c-0.9,0.4-1.3,0.8-1.3,1.5c0,0.6,0.4,1.1,1.3,1.5c0.7,0.3,1.4,0.4,2.1,0.4
			c0.7,0,1.4-0.1,2.1-0.4C271.8,81.6,272.2,81.1,272.2,80.4z M270.6,74.4c0-0.5-0.2-0.9-0.6-1.3c-0.4-0.4-0.8-0.6-1.2-0.6
			c-0.5,0-0.9,0.2-1.3,0.6c-0.4,0.4-0.6,0.8-0.6,1.3c0,0.5,0.2,1,0.5,1.3c0.4,0.4,0.8,0.6,1.3,0.6c0.5,0,0.9-0.2,1.2-0.6
			C270.4,75.4,270.6,74.9,270.6,74.4z"/>
		<path id="XMLID_84_" class="st0" d="M282.8,79.9c0,0.3-0.2,0.4-0.5,0.4h-6.4c-0.3,0-0.5-0.2-0.5-0.5c0-0.2,0.2-0.3,0.5-0.3h2.9
			v-6.7h-2.3c-0.3,0-0.5-0.1-0.5-0.4c0-0.3,0.2-0.4,0.5-0.4h3v7.5h2.9C282.7,79.5,282.8,79.7,282.8,79.9z M279.8,69.4
			c0,0.2-0.1,0.4-0.2,0.5c-0.1,0.2-0.3,0.2-0.5,0.2c-0.5,0-0.7-0.2-0.7-0.7c0-0.2,0.1-0.4,0.2-0.6c0.2-0.2,0.3-0.2,0.5-0.2
			c0.2,0,0.4,0.1,0.5,0.2C279.7,69,279.8,69.2,279.8,69.4z"/>
		<path id="XMLID_81_" class="st0" d="M293.6,78.6c0,0.3-0.3,0.6-0.9,1c-1,0.7-2,1.1-3.2,1.1c-1.2,0-2.3-0.5-3.1-1.4
			c-0.8-0.9-1.3-2-1.3-3.3c0-1.2,0.4-2.2,1.2-3c0.8-0.8,1.8-1.2,2.9-1.2c1.2,0,2.2,0.4,2.9,1.3c0.5,0.6,0.8,1.7,0.8,3.4h-7.1
			c0.1,1.1,0.5,1.9,1.2,2.5c0.6,0.6,1.5,0.9,2.5,0.9c0.9,0,1.8-0.2,2.5-0.6c0.1-0.1,0.3-0.3,0.6-0.6c0.3-0.3,0.5-0.5,0.6-0.5
			C293.5,78.2,293.6,78.3,293.6,78.6z M292.3,75.6c-0.1-0.6-0.1-1-0.2-1.2c-0.1-0.4-0.3-0.8-0.6-1c-0.6-0.6-1.4-0.9-2.2-0.9
			c-0.9,0-1.6,0.3-2.2,0.8c-0.6,0.6-1,1.3-1.1,2.2H292.3z"/>
		<path id="XMLID_79_" class="st0" d="M303.3,78c0,0.9-0.4,1.6-1.2,2.1c-0.6,0.4-1.4,0.6-2.3,0.6c-0.9,0-1.7-0.2-2.3-0.5
			c-0.8-0.5-1.2-1.1-1.2-2c0-0.3,0.1-0.5,0.4-0.5c0.2,0,0.3,0.2,0.4,0.5c0.1,0.5,0.1,0.7,0.1,0.7c0.2,0.3,0.6,0.6,1.2,0.8
			c0.5,0.2,1,0.2,1.5,0.2c0.7,0,1.3-0.1,1.8-0.4c0.7-0.3,1-0.8,1-1.5c0-0.7-0.4-1.2-1.2-1.4c-0.8-0.2-1.6-0.3-2.5-0.5
			c-1-0.2-1.6-0.5-1.9-1c-0.3-0.4-0.4-0.8-0.4-1.1c0-0.8,0.3-1.3,1.1-1.7c0.6-0.3,1.3-0.5,2-0.5c0.7,0,1.4,0.2,2,0.5
			c0.8,0.4,1.2,1,1.2,1.7c0,0.4-0.1,0.6-0.4,0.6c-0.1,0-0.3-0.2-0.3-0.5c-0.1-0.4-0.3-0.7-0.6-1c-0.4-0.4-1.1-0.5-1.9-0.5
			c-0.5,0-1,0.1-1.5,0.3c-0.6,0.3-0.9,0.7-0.9,1.2c0,0.4,0.2,0.7,0.6,1c0.3,0.2,0.8,0.4,1.6,0.4c0.9,0.1,1.5,0.2,1.8,0.2
			c0.7,0.2,1.2,0.5,1.6,1.1C303.1,77.1,303.3,77.6,303.3,78z"/>
		<line id="XMLID_24_" class="st1" x1="81.6" y1="0" x2="81.6" y2="99.2"/>
	</g>
</g>
<g id="XMLID_23_">
	<path id="XMLID_60_" class="st2" d="M32.7,13.8l28.5,30.3L32.6,74.4L4.1,44.2L32.7,13.8 M32.7,12.4L32,13.1L3.3,43.5l-0.6,0.7
		l0.6,0.7l28.5,30.3l0.7,0.8l0.7-0.8L62,44.8l0.6-0.7L62,43.4L33.4,13.1L32.7,12.4L32.7,12.4z"/>
</g>
<polygon id="XMLID_22_" class="st3" points="32.7,34 32.7,54.2 42.2,44.1 "/>
<polygon id="XMLID_21_" class="st4" points="51.8,34 51.8,54.2 42.2,44.1 "/>
<polygon id="XMLID_20_" class="st5" points="51.8,34 51.8,54.2 61.3,44.1 "/>
<polygon id="XMLID_19_" class="st6" points="51.8,34 32.7,34 42.2,44.1 "/>
<polygon id="XMLID_18_" class="st6" points="51.8,54.2 32.7,54.2 42.2,44.1 "/>
<polygon id="XMLID_17_" class="st3" points="32.7,34 32.7,54.2 23.1,44.1 "/>
<polygon id="XMLID_16_" class="st4" points="13.6,34 13.6,54.2 23.1,44.1 "/>
<polygon id="XMLID_15_" class="st5" points="13.6,34 13.6,54.2 4,44.1 "/>
<polygon id="XMLID_11_" class="st6" points="32.6,34 13.5,34 23.1,44.1 "/>
<polygon id="XMLID_10_" class="st6" points="32.6,54.2 13.5,54.2 23.1,44.1 "/>
<polygon id="XMLID_9_" class="st7" points="51.8,54.2 32.7,54.2 42.2,64.3 "/>
<polygon id="XMLID_7_" class="st7" points="32.6,54.2 13.5,54.2 23.1,64.3 "/>
<polygon id="XMLID_6_" class="st4" points="23.1,64.3 42.2,64.3 32.6,54.2 "/>
<polygon id="XMLID_5_" class="st5" points="23.1,64.3 42.2,64.3 32.6,74.4 "/>
<polygon id="XMLID_4_" class="st7" points="51.8,34 32.7,34 42.2,23.8 "/>
<polygon id="XMLID_3_" class="st7" points="32.6,34 13.5,34 23.1,23.8 "/>
<polygon id="XMLID_2_" class="st4" points="23.1,23.9 42.2,23.9 32.6,34 "/>
<polygon id="XMLID_1_" class="st5" points="23.1,23.9 42.2,23.9 32.6,13.7 "/>
</svg>
